<svg width="200" height="200" viewBox="0 0 200 200" version="1.1" xmlns="http://www.w3.org/2000/svg" xmlns:xlink="http://www.w3.org/1999/xlink">
<title>union</title>
<desc>Created using Figma</desc>
<g id="Canvas" transform="translate(-1551 -26)">
<g id="Union">
<use xlink:href="#path0_fill" transform="matrix(1 -2.77556e-17 2.77556e-17 1 1551 26)" fill="#FFFFFF"/>
</g>
</g>
<defs>
<path id="path0_fill" fill-rule="evenodd" d="M 200 100C 200 155.228 155.229 200 100 200C 44.7715 200 0 155.228 0 100C 0 44.7715 44.7715 0 100 0C 155.229 0 200 44.7715 200 100ZM 162.454 150C 147.792 168.289 125.264 180 100 180C 59.2038 180 25.5399 149.463 20.619 110L 166.391 110C 173.289 110 178.687 116.087 176.733 122.703C 175.409 127.185 171.126 130 166.453 130L 53.0649 130C 50.1265 130 48.2113 133.056 49.7073 135.586C 51.4439 138.522 53.3889 141.32 55.5219 143.96C 58.8112 148.031 63.9418 150 69.1759 150L 162.454 150ZM 179.381 90L 33.6095 90C 26.711 90 21.3128 83.9128 23.2673 77.2969C 24.5913 72.8149 28.8738 70 33.5472 70L 146.935 70C 149.873 70 151.789 66.9436 150.293 64.4145C 148.556 61.4784 146.611 58.6802 144.478 56.0402C 141.189 51.9689 136.058 50 130.824 50L 37.5463 50C 52.2075 31.7108 74.7361 20 100 20C 140.796 20 174.46 50.5369 179.381 90Z"/>
</defs>
</svg>
